0
SECTION
2
HEADER
9
$INSUNITS
70
4
9
$ACADVER
1
AC1014
9
$HANDSEED
5
FFFF
0
ENDSEC
0
SECTION
2
TABLES
0
TABLE
2
VPORT
5
8
100
AcDbSymbolTable
0
ENDTAB
0
TABLE
2
LTYPE
5
5
100
AcDbSymbolTable
0
LTYPE
5
14
100
AcDbSymbolTableRecord
100
AcDbLinetypeTableRecord
2
BYBLOCK
70
0
0
LTYPE
5
15
100
AcDbSymbolTableRecord
100
AcDbLinetypeTableRecord
2
BYLAYER
70
0
0
ENDTAB
0
TABLE
2
LAYER
5
2
100
AcDbSymbolTable
70
2
0
LAYER
5
50
100
AcDbSymbolTableRecord
100
AcDbLayerTableRecord
2
0
70
0
6
CONTINUOUS
0
ENDTAB
0
TABLE
2
STYLE
5
3
100
AcDbSymbolTable
70
1
0
STYLE
5
11
100
AcDbSymbolTableRecord
100
AcDbTextStyleTableRecord
2
STANDARD
70
0
0
ENDTAB
0
TABLE
2
VIEW
5
6
100
AcDbSymbolTable
70
0
0
ENDTAB
0
TABLE
2
UCS
5
7
100
AcDbSymbolTable
70
0
0
ENDTAB
0
TABLE
2
APPID
5
9
100
AcDbSymbolTable
70
2
0
APPID
5
12
100
AcDbSymbolTableRecord
100
AcDbRegAppTableRecord
2
ACAD
70
0
0
ENDTAB
0
TABLE
2
DIMSTYLE
5
A
100
AcDbSymbolTable
70
1
0
ENDTAB
0
TABLE
2
BLOCK_RECORD
5
1
100
AcDbSymbolTable
70
1
0
BLOCK_RECORD
5
1F
100
AcDbSymbolTableRecord
100
AcDbBlockTableRecord
2
*MODEL_SPACE
0
BLOCK_RECORD
5
1B
100
AcDbSymbolTableRecord
100
AcDbBlockTableRecord
2
*PAPER_SPACE
0
ENDTAB
0
ENDSEC
0
SECTION
2
BLOCKS
0
BLOCK
5
20
100
AcDbEntity
100
AcDbBlockBegin
2
*MODEL_SPACE
0
ENDBLK
5
21
100
AcDbEntity
100
AcDbBlockEnd
0
BLOCK
5
1C
100
AcDbEntity
100
AcDbBlockBegin
2
*PAPER_SPACE
0
ENDBLK
5
1D
100
AcDbEntity
100
AcDbBlockEnd
0
ENDSEC
0
SECTION
2
ENTITIES
0
LWPOLYLINE
5
100
100
AcDbEntity
8
0
100
AcDbPolyline
90
4
70
1
43
0.0
10
-9.1199999999999832
20
19.620000000000001
10
-9.1200000000001005
20
-19.619999999999997
10
9.1199999999999921
20
-19.620000000000001
10
9.1200000000001005
20
19.619999999999997
0
LWPOLYLINE
5
101
100
AcDbEntity
8
0
100
AcDbPolyline
90
8
70
1
43
0.0
10
-10.000000000000099
20
-19.699999999999999
10
-9.999999999999984
20
19.699999999999999
42
-0.41421356237309503
10
-9.1999999999999797
20
20.500000000000004
10
9.2000000000000597
20
20.500000000000039
42
-0.41421356237309503
10
10.000000000000099
20
19.699999999999999
10
9.9999999999999929
20
-19.699999999999996
42
-0.41421356237309465
10
9.1999999999999922
20
-20.500000000000004
10
-9.2000000000000597
20
-20.500000000000039
42
-0.41421356237309503
0
LWPOLYLINE
5
102
100
AcDbEntity
8
0
100
AcDbPolyline
90
10
70
1
43
0.0
10
-5.8250000000000002
20
16.574999999999996
10
-9.1199999999999921
20
16.575000000000006
10
-9.1200000000000507
20
-3.0000000447034285
10
-4.2760964277452569
20
-3.0000000447034498
42
-0.26893688300425611
10
4.2760964277453013
20
-3.0000000447034698
10
9.1200000000000383
20
-3.0000000447034836
10
9.1200000000000916
20
16.574999999999978
10
5.8250000000000988
20
16.574999999999992
10
5.8250000000000979
20
19.619999999999997
10
-5.8249999999999993
20
19.620000000000001
0
ARC
5
103
100
AcDbEntity
8
0
100
AcDbCircle
10
-7.5
20
18.25
30
0
40
1.6749999999999998
210
0
220
0
230
1
100
AcDbArc
50
-165.27663235635163
51
54.876165285048046
0
CIRCLE
5
104
100
AcDbEntity
8
0
100
AcDbCircle
10
0
20
-10.375
30
0
40
8.5249999999999986
210
0
220
-0
230
1
0
LINE
5
105
100
AcDbEntity
8
0
100
AcDbLine
10
-9.0200000000000493
20
-2.9000000447034289
30
0
11
-4.3029060724487511
21
-2.9000000447034431
31
0
0
ARC
5
106
100
AcDbEntity
8
0
100
AcDbCircle
10
3.6082286070812605e-15
20
-10.375000000000034
30
0
40
8.6250000000000284
210
0
220
-0
230
1
100
AcDbArc
50
60.073564538132366
51
119.92643546186727
0
LINE
5
107
100
AcDbEntity
8
0
100
AcDbLine
10
9.0200000000000387
20
-2.900000044703483
30
0
11
4.3029060724488062
21
-2.9000000447034657
31
0
0
LINE
5
108
100
AcDbEntity
8
0
100
AcDbLine
10
9.0200000000000919
20
16.474999999999977
30
0
11
9.0200000000000387
21
-2.900000044703483
31
0
0
LINE
5
109
100
AcDbEntity
8
0
100
AcDbLine
10
5.7250000000000991
20
16.474999999999991
30
0
11
9.0200000000000919
21
16.474999999999977
31
0
0
LINE
5
110
100
AcDbEntity
8
0
100
AcDbLine
10
5.7250000000000973
20
19.519999999999996
30
0
11
5.7250000000000991
21
16.474999999999991
31
0
0
LINE
5
111
100
AcDbEntity
8
0
100
AcDbLine
10
5.7250000000000973
20
19.519999999999996
30
0
11
-5.7249999999999996
21
19.520000000000003
31
0
0
LINE
5
112
100
AcDbEntity
8
0
100
AcDbLine
10
-5.7249999999999996
20
16.474999999999994
30
0
11
-5.7249999999999996
21
19.520000000000003
31
0
0
LINE
5
113
100
AcDbEntity
8
0
100
AcDbLine
10
-9.0199999999999942
20
16.475000000000005
30
0
11
-5.7249999999999996
21
16.474999999999994
31
0
0
LINE
5
114
100
AcDbEntity
8
0
100
AcDbLine
10
-9.0200000000000493
20
-2.9000000447034289
30
0
11
-9.0199999999999942
21
16.475000000000005
31
0
0
CIRCLE
5
115
100
AcDbEntity
8
0
100
AcDbCircle
10
-7.5
20
18.25
30
0
40
1.6749999999999998
210
0
220
0
230
1
0
CIRCLE
5
116
100
AcDbEntity
8
0
100
AcDbCircle
10
7.5000000000000977
20
18.249999999999986
30
0
40
1.6749999999999998
210
0
220
0
230
1
0
LINE
5
117
100
AcDbEntity
8
0
100
AcDbLine
10
-9.0200000000000493
20
-2.9000000447034289
30
0
11
-10.00000000000005
21
-2.9000000447034262
31
0
0
LINE
5
118
100
AcDbEntity
8
0
100
AcDbLine
10
-10.00000000000005
20
-2.9000000447034262
30
0
11
-10.000000000000043
21
19.699999999999996
31
0
0
LINE
5
119
100
AcDbEntity
8
0
100
AcDbLine
10
-9.2000000000000384
20
20.5
30
0
11
9.2000000000000988
21
20.499999999999943
31
0
0
LINE
5
120
100
AcDbEntity
8
0
100
AcDbLine
10
10.000000000000098
20
19.699999999999946
30
0
11
10.000000000000037
21
-2.8999999351799488
31
0
0
LINE
5
121
100
AcDbEntity
8
0
100
AcDbLine
10
9.0200000000000387
20
-2.900000044703483
30
0
11
10.000000000000037
21
-2.8999999351799488
31
0
0
ARC
5
122
100
AcDbEntity
8
0
100
AcDbCircle
10
9.2000000000001041
20
19.69999999999995
30
0
40
0.79999999999999405
210
-0
220
0
230
1
100
AcDbArc
50
0
51
90.000000000000384
0
ARC
5
123
100
AcDbEntity
8
0
100
AcDbCircle
10
-9.200000000000033
20
19.699999999999989
30
0
40
0.80000000000000959
210
0
220
0
230
1
100
AcDbArc
50
90.000000000000384
51
180
0
ENDSEC
0
SECTION
2
OBJECTS
0
DICTIONARY
5
C
100
AcDbDictionary
3
ACAD_GROUP
350
D
3
ACAD_MLINESTYLE
350
17
0
DICTIONARY
5
D
100
AcDbDictionary
0
DICTIONARY
5
1A
330
C
100
AcDbDictionary
0
DICTIONARY
5
17
100
AcDbDictionary
0
ENDSEC
0
EOF
